<?xml version="1.0" standalone="no"?>
<!DOCTYPE svg PUBLIC "-//W3C//DTD SVG 20010904//EN"
 "http://www.w3.org/TR/2001/REC-SVG-20010904/DTD/svg10.dtd">
<svg version="1.0" xmlns="http://www.w3.org/2000/svg"
 width="1848.000000pt" height="804.000000pt" viewBox="0 0 1848.000000 804.000000"
 preserveAspectRatio="xMidYMid meet">
<metadata>
Created by potrace 1.13, written by Peter Selinger 2001-2015
</metadata>
<g transform="translate(0.000000,804.000000) scale(0.100000,-0.100000)"
fill="#000000" stroke="none">
<path d="M6040 7255 l0 -125 25 0 c24 0 25 2 25 64 0 71 17 99 48 79 13 -7 18
-28 20 -77 3 -63 4 -66 27 -66 24 0 25 3 25 64 0 36 -4 76 -9 89 -11 29 -49
41 -85 27 -25 -9 -26 -8 -26 30 0 36 -3 40 -25 40 l-25 0 0 -125z"/>
<path d="M11188 7298 c4 -37 3 -40 -14 -33 -43 18 -62 16 -90 -8 -25 -22 -29
-32 -29 -77 0 -71 23 -90 111 -88 l64 1 0 123 c0 122 0 124 -23 124 -20 0 -22
-4 -19 -42z"/>
<path d="M5427 7314 c-4 -5 -23 -7 -42 -6 l-35 3 0 -91 c0 -89 0 -90 25 -90
24 0 25 2 25 64 0 71 17 99 48 79 13 -7 18 -28 20 -77 3 -63 4 -66 29 -66 l25
0 -3 80 c-2 43 -9 84 -14 89 -14 14 -68 24 -78 15z"/>
<path d="M5590 7307 c-19 -10 -25 -20 -25 -47 0 -32 3 -36 40 -48 71 -22 69
-21 55 -37 -16 -19 -35 -19 -54 0 -16 17 -56 20 -56 5 0 -5 9 -19 20 -30 41
-41 150 -16 150 33 0 25 -25 47 -68 59 -50 15 -59 32 -19 36 15 2 27 -1 27 -7
0 -6 11 -11 25 -11 27 0 34 20 13 38 -22 18 -81 23 -108 9z"/>
<path d="M5857 7298 c-22 -18 -27 -33 -29 -70 -2 -69 21 -92 84 -85 45 6 47 5
39 -16 -9 -24 -47 -35 -64 -18 -13 13 -57 15 -57 3 0 -42 114 -58 150 -22 17
17 20 33 20 120 l0 100 -32 -1 c-18 0 -45 2 -59 6 -19 5 -33 1 -52 -17z"/>
<path d="M6400 7307 c-19 -10 -25 -20 -25 -47 0 -32 3 -36 40 -48 71 -22 69
-21 55 -37 -16 -19 -35 -19 -54 0 -16 17 -56 20 -56 5 0 -5 9 -19 20 -30 41
-41 150 -16 150 33 0 25 -25 47 -68 59 -50 15 -59 32 -19 36 15 2 27 -1 27 -7
0 -6 11 -11 25 -11 27 0 34 20 13 38 -22 18 -81 23 -108 9z"/>
<path d="M11314 7270 c-50 -20 -68 -84 -39 -139 16 -33 33 -41 81 -41 25 0 43
8 62 28 27 27 27 27 5 30 -12 2 -32 -4 -45 -12 -22 -14 -26 -14 -46 0 -37 25
-25 34 44 34 l67 0 -7 32 c-4 18 -14 41 -24 50 -21 22 -70 31 -98 18z"/>
<path d="M11503 7265 c-18 -8 -33 -21 -33 -30 0 -18 32 -20 59 -3 21 13 55 4
49 -14 -3 -7 -24 -16 -47 -20 -52 -9 -71 -23 -71 -54 0 -41 24 -53 100 -52
l70 2 0 77 c0 49 -4 80 -12 87 -23 19 -82 23 -115 7z"/>
<path d="M16498 7155 l3 -125 25 0 c22 0 24 4 24 50 l0 50 50 0 c47 0 50 2 50
25 0 23 -3 25 -50 25 -47 0 -50 2 -50 25 0 24 3 25 60 25 57 0 60 1 60 25 0
25 -1 25 -87 25 l-88 0 3 -125z"/>
<path d="M16857 7214 c-4 -5 -23 -7 -42 -6 l-35 3 0 -91 c0 -89 0 -90 25 -90
24 0 25 2 25 64 0 71 17 99 48 79 13 -7 18 -28 20 -77 3 -63 4 -66 29 -66 l25
0 -3 80 c-2 43 -9 84 -14 89 -14 14 -68 24 -78 15z"/>
<path d="M17023 7205 c-18 -8 -33 -21 -33 -30 0 -18 32 -20 59 -3 21 13 55 4
49 -14 -3 -7 -24 -16 -47 -20 -52 -9 -71 -23 -71 -54 0 -41 24 -53 100 -52
l70 2 0 77 c0 49 -4 80 -12 87 -23 19 -82 23 -115 7z"/>
<path d="M5048 6834 l3 -126 79 3 c59 3 83 9 99 23 26 23 28 72 4 98 -13 14
-14 21 -5 30 7 7 12 24 12 39 0 43 -32 59 -120 59 l-75 0 3 -126z"/>
<path d="M5736 6944 c-9 -8 -16 -24 -16 -35 0 -10 -7 -19 -15 -19 -8 0 -15 -7
-15 -15 0 -8 7 -15 15 -15 12 0 15 -15 15 -75 0 -73 1 -75 25 -75 24 0 25 2
25 75 0 60 3 75 15 75 8 0 15 7 15 15 0 8 -7 15 -15 15 -8 0 -15 7 -15 15 0 8
9 15 20 15 13 0 20 7 20 20 0 15 -7 20 -29 20 -16 0 -37 -7 -45 -16z"/>
<path d="M10278 6795 l3 -125 25 0 c22 0 24 4 24 45 l0 45 44 0 c61 0 96 29
96 80 0 59 -33 80 -124 80 l-71 0 3 -125z"/>
<path d="M5554 6890 c-50 -20 -68 -84 -39 -139 16 -33 33 -41 81 -41 25 0 43
8 62 28 27 27 27 27 5 30 -12 2 -32 -4 -45 -12 -22 -14 -26 -14 -46 0 -37 25
-25 34 44 34 l67 0 -7 32 c-4 18 -14 41 -24 50 -21 22 -70 31 -98 18z"/>
<path d="M5997 6894 c-4 -5 -23 -7 -42 -6 l-35 3 0 -91 c0 -89 0 -90 25 -90
24 0 25 2 25 64 0 71 17 99 48 79 13 -7 18 -28 20 -77 3 -63 4 -66 29 -66 l25
0 -3 80 c-2 43 -9 84 -14 89 -14 14 -68 24 -78 15z"/>
<path d="M6147 6878 c-22 -18 -27 -33 -29 -70 -2 -69 21 -92 84 -85 45 6 47 5
39 -16 -9 -24 -47 -35 -64 -18 -13 13 -57 15 -57 3 0 -42 114 -58 150 -22 17
17 20 33 20 120 l0 100 -32 -1 c-18 0 -45 2 -59 6 -19 5 -33 1 -52 -17z"/>
<path d="M6594 6886 c-36 -16 -44 -32 -44 -91 0 -35 5 -48 26 -64 26 -21 76
-27 109 -15 8 4 22 19 30 35 46 88 -32 175 -121 135z"/>
<path d="M10674 6850 c-50 -20 -68 -84 -39 -139 16 -33 33 -41 81 -41 25 0 43
8 62 28 27 27 27 27 5 30 -12 2 -32 -4 -45 -12 -22 -14 -26 -14 -46 0 -37 25
-25 34 44 34 l67 0 -7 32 c-4 18 -14 41 -24 50 -21 22 -70 31 -98 18z"/>
<path d="M10860 6847 c-19 -10 -25 -20 -25 -47 0 -32 3 -36 40 -48 71 -22 69
-21 55 -37 -16 -19 -35 -19 -54 0 -16 17 -56 20 -56 5 0 -5 9 -19 20 -30 41
-41 150 -16 150 33 0 25 -25 47 -68 59 -50 15 -59 32 -19 36 15 2 27 -1 27 -7
0 -6 11 -11 25 -11 27 0 34 20 13 38 -22 18 -81 23 -108 9z"/>
<path d="M11054 6850 c-50 -20 -68 -84 -39 -139 16 -33 33 -41 81 -41 25 0 43
8 62 28 27 27 27 27 5 30 -12 2 -32 -4 -45 -12 -22 -14 -26 -14 -46 0 -37 25
-25 34 44 34 l67 0 -7 32 c-4 18 -14 41 -24 50 -21 22 -70 31 -98 18z"/>
<path d="M11287 6854 c-4 -5 -23 -7 -42 -6 l-35 3 0 -91 c0 -89 0 -90 25 -90
24 0 25 2 25 64 0 71 17 99 48 79 13 -7 18 -28 20 -77 3 -63 4 -66 29 -66 l25
0 -3 80 c-2 43 -9 84 -14 89 -14 14 -68 24 -78 15z"/>
<path d="M11573 6845 c-18 -8 -33 -21 -33 -30 0 -18 32 -20 59 -3 21 13 55 4
49 -14 -3 -7 -24 -16 -47 -20 -52 -9 -71 -23 -71 -54 0 -41 24 -53 100 -52
l70 2 0 77 c0 49 -4 80 -12 87 -23 19 -82 23 -115 7z"/>
<path d="M11994 6846 c-36 -16 -44 -32 -44 -91 0 -35 5 -48 26 -64 26 -21 76
-27 109 -15 8 4 22 19 30 35 46 88 -32 175 -121 135z"/>
<path d="M12237 6854 c-4 -5 -23 -7 -42 -6 l-35 3 0 -91 c0 -89 0 -90 25 -90
24 0 25 2 25 64 0 71 17 99 48 79 13 -7 18 -28 20 -77 3 -63 4 -66 29 -66 l25
0 -3 80 c-2 43 -9 84 -14 89 -14 14 -68 24 -78 15z"/>
<path d="M15916 6793 c-4 -4 -22 -6 -41 -5 l-35 3 0 -121 0 -120 25 0 c22 0
25 4 25 34 l0 34 43 -5 c39 -5 46 -2 65 22 22 27 27 69 16 113 -9 34 -78 65
-98 45z"/>
<path d="M16224 6790 c-50 -20 -68 -84 -39 -139 16 -33 33 -41 81 -41 25 0 43
8 62 28 27 27 27 27 5 30 -12 2 -32 -4 -45 -12 -22 -14 -26 -14 -46 0 -37 25
-25 34 44 34 l67 0 -7 32 c-4 18 -14 41 -24 50 -21 22 -70 31 -98 18z"/>
<path d="M16410 6787 c-19 -10 -25 -20 -25 -47 0 -32 3 -36 40 -48 71 -22 69
-21 55 -37 -16 -19 -35 -19 -54 0 -16 17 -56 20 -56 5 0 -5 9 -19 20 -30 41
-41 150 -16 150 33 0 25 -25 47 -68 59 -50 15 -59 32 -19 36 15 2 27 -1 27 -7
0 -6 11 -11 25 -11 27 0 34 20 13 38 -22 18 -81 23 -108 9z"/>
<path d="M16614 6790 c-50 -20 -68 -84 -39 -139 16 -33 33 -41 81 -41 25 0 43
8 62 28 27 27 27 27 5 30 -12 2 -32 -4 -45 -12 -22 -14 -26 -14 -46 0 -37 25
-25 34 44 34 l67 0 -7 32 c-4 18 -14 41 -24 50 -21 22 -70 31 -98 18z"/>
<path d="M16847 6794 c-4 -5 -23 -7 -42 -6 l-35 3 0 -91 c0 -89 0 -90 25 -90
24 0 25 2 25 64 0 71 17 99 48 79 13 -7 18 -28 20 -77 3 -63 4 -66 29 -66 l25
0 -3 80 c-2 43 -9 84 -14 89 -14 14 -68 24 -78 15z"/>
<path d="M17123 6785 c-18 -8 -33 -21 -33 -30 0 -18 32 -20 59 -3 21 13 55 4
49 -14 -3 -7 -24 -16 -47 -20 -52 -9 -71 -23 -71 -54 0 -41 24 -53 100 -52
l70 2 0 77 c0 49 -4 80 -12 87 -23 19 -82 23 -115 7z"/>
<path d="M17544 6786 c-36 -16 -44 -32 -44 -91 0 -35 5 -48 26 -64 26 -21 76
-27 109 -15 8 4 22 19 30 35 46 88 -32 175 -121 135z"/>
<path d="M17787 6794 c-4 -5 -23 -7 -42 -6 l-35 3 0 -91 c0 -89 0 -90 25 -90
24 0 25 2 25 64 0 71 17 99 48 79 13 -7 18 -28 20 -77 3 -63 4 -66 29 -66 l25
0 -3 80 c-2 43 -9 84 -14 89 -14 14 -68 24 -78 15z"/>
<path d="M5348 6415 c3 -115 5 -125 22 -125 14 0 20 8 22 32 4 44 22 45 48 3
17 -27 28 -35 51 -35 33 0 33 -1 -14 68 l-29 44 33 34 33 34 -30 0 c-20 0 -39
-9 -54 -25 -13 -14 -27 -25 -32 -25 -4 0 -8 27 -8 60 0 56 -2 60 -22 60 -23 0
-23 -1 -20 -125z"/>
<path d="M5740 6415 l0 -125 25 0 c24 0 25 2 25 64 0 71 17 99 48 79 13 -7 18
-28 20 -77 3 -63 4 -66 27 -66 24 0 25 3 25 64 0 36 -4 76 -9 89 -11 29 -49
41 -85 27 -25 -9 -26 -8 -26 30 0 36 -3 40 -25 40 l-25 0 0 -125z"/>
<path d="M6368 6498 c4 -37 3 -40 -14 -33 -43 18 -62 16 -90 -8 -25 -22 -29
-32 -29 -77 0 -71 23 -90 111 -88 l64 1 0 123 c0 122 0 124 -23 124 -20 0 -22
-4 -19 -42z"/>
<path d="M10678 6458 c4 -37 3 -40 -14 -33 -43 18 -62 16 -90 -8 -25 -22 -29
-32 -29 -77 0 -71 23 -90 111 -88 l64 1 0 123 c0 122 0 124 -23 124 -20 0 -22
-4 -19 -42z"/>
<path d="M10868 6375 l3 -125 25 0 c22 0 24 4 24 50 l0 50 50 0 c47 0 50 2 50
25 0 23 -3 25 -50 25 -47 0 -50 2 -50 25 0 24 3 25 60 25 57 0 60 1 60 25 0
25 -1 25 -87 25 l-88 0 3 -125z"/>
<path d="M11588 6458 c4 -37 3 -40 -14 -33 -43 18 -62 16 -90 -8 -25 -22 -29
-32 -29 -77 0 -71 23 -90 111 -88 l64 1 0 123 c0 122 0 124 -23 124 -20 0 -22
-4 -19 -42z"/>
<path d="M11670 6377 l0 -123 70 -2 c63 -1 71 1 90 25 38 48 17 144 -34 157
-14 3 -36 2 -50 -4 -25 -9 -26 -8 -26 30 0 36 -3 40 -25 40 l-25 0 0 -123z"/>
<path d="M12288 6375 c3 -115 5 -125 22 -125 14 0 20 8 22 32 4 44 22 45 48 3
17 -27 28 -35 51 -35 33 0 33 -1 -14 68 l-29 44 33 34 33 34 -30 0 c-20 0 -39
-9 -54 -25 -13 -14 -27 -25 -32 -25 -4 0 -8 27 -8 60 0 56 -2 60 -22 60 -23 0
-23 -1 -20 -125z"/>
<path d="M4860 6467 c-19 -10 -25 -20 -25 -47 0 -32 3 -36 40 -48 71 -22 69
-21 55 -37 -16 -19 -35 -19 -54 0 -16 17 -56 20 -56 5 0 -5 9 -19 20 -30 41
-41 150 -16 150 33 0 25 -25 47 -68 59 -50 15 -59 32 -19 36 15 2 27 -1 27 -7
0 -6 11 -11 25 -11 27 0 34 20 13 38 -22 18 -81 23 -108 9z"/>
<path d="M5173 6465 c-18 -8 -33 -21 -33 -30 0 -18 32 -20 59 -3 21 13 55 4
49 -14 -3 -7 -24 -16 -47 -20 -52 -9 -71 -23 -71 -54 0 -41 24 -53 100 -52
l70 2 0 77 c0 49 -4 80 -12 87 -23 19 -82 23 -115 7z"/>
<path d="M5584 6470 c-50 -20 -68 -84 -39 -139 16 -33 33 -41 81 -41 25 0 43
8 62 28 27 27 27 27 5 30 -12 2 -32 -4 -45 -12 -22 -14 -26 -14 -46 0 -37 25
-25 34 44 34 l67 0 -7 32 c-4 18 -14 41 -24 50 -21 22 -70 31 -98 18z"/>
<path d="M5984 6466 c-36 -16 -44 -32 -44 -91 0 -35 5 -48 26 -64 26 -21 76
-27 109 -15 8 4 22 19 30 35 46 88 -32 175 -121 135z"/>
<path d="M6494 6470 c-50 -20 -68 -84 -39 -139 16 -33 33 -41 81 -41 25 0 43
8 62 28 27 27 27 27 5 30 -12 2 -32 -4 -45 -12 -22 -14 -26 -14 -46 0 -37 25
-25 34 44 34 l67 0 -7 32 c-4 18 -14 41 -24 50 -21 22 -70 31 -98 18z"/>
<path d="M6810 6467 c-19 -10 -25 -20 -25 -47 0 -32 3 -36 40 -48 71 -22 69
-21 55 -37 -16 -19 -35 -19 -54 0 -16 17 -56 20 -56 5 0 -5 9 -19 20 -30 41
-41 150 -16 150 33 0 25 -25 47 -68 59 -50 15 -59 32 -19 36 15 2 27 -1 27 -7
0 -6 11 -11 25 -11 27 0 34 20 13 38 -22 18 -81 23 -108 9z"/>
<path d="M10183 6425 c-18 -8 -33 -21 -33 -30 0 -18 32 -20 59 -3 21 13 55 4
49 -14 -3 -7 -24 -16 -47 -20 -52 -9 -71 -23 -71 -54 0 -41 24 -53 100 -52
l70 2 0 77 c0 49 -4 80 -12 87 -23 19 -82 23 -115 7z"/>
<path d="M10427 6434 c-4 -5 -23 -7 -42 -6 l-35 3 0 -91 c0 -89 0 -90 25 -90
24 0 25 2 25 64 0 71 17 99 48 79 13 -7 18 -28 20 -77 3 -63 4 -66 29 -66 l25
0 -3 80 c-2 43 -9 84 -14 89 -14 14 -68 24 -78 15z"/>
<path d="M11114 6430 c-50 -20 -68 -84 -39 -139 16 -33 33 -41 81 -41 25 0 43
8 62 28 27 27 27 27 5 30 -12 2 -32 -4 -45 -12 -22 -14 -26 -14 -46 0 -37 25
-25 34 44 34 l67 0 -7 32 c-4 18 -14 41 -24 50 -21 22 -70 31 -98 18z"/>
<path d="M11304 6430 c-50 -20 -68 -84 -39 -139 16 -33 33 -41 81 -41 25 0 43
8 62 28 27 27 27 27 5 30 -12 2 -32 -4 -45 -12 -22 -14 -26 -14 -46 0 -37 25
-25 34 44 34 l67 0 -7 32 c-4 18 -14 41 -24 50 -21 22 -70 31 -98 18z"/>
<path d="M11923 6425 c-18 -8 -33 -21 -33 -30 0 -18 32 -20 59 -3 21 13 55 4
49 -14 -3 -7 -24 -16 -47 -20 -52 -9 -71 -23 -71 -54 0 -41 24 -53 100 -52
l70 2 0 77 c0 49 -4 80 -12 87 -23 19 -82 23 -115 7z"/>
<path d="M12125 6429 c-34 -20 -45 -41 -45 -90 0 -39 5 -51 26 -68 37 -29 89
-27 119 4 14 13 25 29 25 35 0 17 -39 11 -60 -10 -41 -41 -89 24 -56 75 19 28
38 32 56 10 13 -16 60 -21 60 -6 0 38 -85 72 -125 50z"/>
<path d="M5680 5735 l0 -355 -97 0 -98 0 197 -197 198 -198 190 190 c104 104
190 193 190 197 0 4 -42 9 -92 10 l-93 3 -3 353 -2 352 -195 0 -195 0 0 -355z
m380 -10 l0 -355 92 0 93 0 -183 -182 -182 -183 -182 183 -183 182 88 0 87 0
0 355 0 355 185 0 185 0 0 -355z"/>
<path d="M11068 5628 l-3 -353 -95 -3 -94 -3 194 -194 195 -195 192 192 c106
106 193 195 193 198 0 3 -42 5 -92 5 l-93 0 -3 353 -2 352 -195 0 -195 0 -2
-352z m382 -13 l0 -355 92 0 93 0 -183 -182 -182 -183 -182 183 -183 182 88 0
87 0 0 355 0 355 185 0 185 0 0 -355z"/>
<path d="M15054 5581 c-38 -23 -64 -76 -64 -129 0 -95 116 -145 180 -77 19 20
19 23 5 29 -10 3 -28 -2 -42 -14 -33 -26 -45 -25 -82 6 -45 38 -39 99 15 149
33 30 73 32 102 5 21 -20 24 -26 26 -60 1 -8 9 -16 19 -18 13 -3 17 3 17 25 0
80 -103 129 -176 84z"/>
<path d="M4190 5553 c-49 -18 -90 -83 -90 -143 0 -93 116 -144 181 -79 31 31
5 44 -32 17 -46 -34 -119 3 -119 59 0 51 59 123 101 123 28 0 79 -49 79 -76 0
-15 6 -24 15 -24 20 0 20 49 -1 79 -27 38 -92 59 -134 44z"/>
<path d="M9534 5550 c-32 -13 -72 -67 -80 -106 -15 -82 43 -151 120 -141 47 7
89 42 67 57 -10 6 -23 2 -39 -11 -34 -27 -59 -24 -94 11 -25 26 -29 36 -24 62
13 66 66 115 111 104 35 -9 65 -41 65 -71 0 -16 6 -25 15 -25 10 0 15 10 15
28 0 68 -87 120 -156 92z"/>
<path d="M13070 5523 c-36 -13 -50 -37 -50 -80 0 -36 6 -50 30 -75 27 -26 36
-30 68 -25 42 7 72 38 72 74 0 30 -24 26 -28 -5 -4 -28 -37 -46 -68 -38 -38
10 -28 29 32 62 l56 31 -23 26 c-25 27 -63 40 -89 30z"/>
<path d="M2150 5460 c-32 -32 -27 -94 9 -131 35 -35 77 -38 115 -8 29 23 39
83 11 73 -8 -4 -13 -9 -10 -13 2 -4 -3 -18 -11 -30 -12 -16 -24 -21 -47 -19
-52 5 -44 30 18 61 50 24 54 29 45 47 -23 43 -96 54 -130 20z"/>
<path d="M7500 5460 c-32 -32 -27 -94 9 -131 35 -35 77 -38 115 -8 29 23 39
83 11 73 -8 -4 -13 -9 -10 -13 8 -14 -26 -51 -48 -51 -29 0 -51 15 -43 29 4 6
30 23 57 36 27 14 49 29 49 33 0 5 -10 18 -23 30 -30 29 -89 30 -117 2z"/>
<path d="M12937 5446 c-8 -9 -24 -16 -35 -16 -27 0 -62 -42 -62 -74 0 -87 89
-138 145 -82 22 22 25 23 30 7 13 -41 -25 -76 -69 -65 -30 7 -43 -12 -17 -25
29 -16 92 8 110 40 13 24 13 31 -2 70 -10 24 -32 70 -50 102 -31 54 -35 57
-50 43z"/>
<path d="M15242 5423 c-18 -7 -43 -60 -44 -94 -2 -71 95 -107 147 -54 36 35
37 95 2 133 -20 21 -71 29 -105 15z"/>
<path d="M2052 5413 c-6 -3 -10 -9 -6 -14 3 -5 -7 -9 -21 -9 -35 0 -75 -42
-75 -78 0 -16 10 -44 23 -63 19 -28 30 -35 64 -37 34 -3 44 1 61 23 l21 27 7
-28 c9 -36 -27 -68 -68 -60 -37 7 -46 -11 -13 -26 23 -10 33 -9 63 7 53 29 61
62 33 123 -40 85 -76 139 -89 135z"/>
<path d="M7404 5405 c-4 -8 -17 -15 -31 -15 -29 0 -73 -42 -73 -70 0 -33 27
-87 48 -99 36 -19 79 -13 100 14 21 27 32 23 32 -10 0 -31 -34 -59 -62 -52
-13 4 -29 2 -37 -2 -11 -7 -9 -11 9 -21 43 -23 120 19 120 67 0 23 -85 203
-95 203 -3 0 -8 -7 -11 -15z"/>
<path d="M4336 5359 c-27 -32 -34 -84 -16 -119 5 -10 25 -23 43 -29 60 -20
109 14 123 87 5 26 1 36 -24 62 -42 42 -90 42 -126 -1z"/>
<path d="M9689 5361 c-22 -23 -29 -39 -29 -68 0 -108 152 -117 175 -11 20 89
-81 143 -146 79z"/>
<path d="M12614 5276 c-66 -56 -3 -183 80 -162 34 8 66 44 66 73 0 30 -18 30
-29 0 -14 -37 -38 -52 -68 -41 -43 15 -37 28 29 60 l62 31 -31 32 c-38 37 -72
40 -109 7z"/>
<path d="M1750 5253 c-35 -13 -50 -37 -50 -80 0 -36 6 -50 30 -75 27 -26 36
-30 68 -25 42 7 72 38 72 74 0 29 -23 27 -28 -3 -7 -40 -67 -59 -91 -30 -10
12 -1 20 48 46 52 28 59 35 50 51 -9 18 -60 50 -76 48 -4 0 -15 -3 -23 -6z"/>
<path d="M7093 5250 c-29 -12 -43 -40 -43 -85 0 -47 45 -95 88 -95 42 0 82 35
82 72 0 34 -23 34 -28 0 -4 -28 -37 -46 -68 -38 -39 10 -28 30 31 59 48 23 54
30 46 45 -21 40 -69 58 -108 42z"/>
<path d="M15744 5158 c-46 -22 -64 -110 -30 -147 23 -25 69 -36 95 -21 34 18
25 33 -14 26 -27 -5 -39 -2 -55 14 -20 20 -26 41 -14 53 4 3 33 -7 65 -23 35
-18 60 -26 64 -20 3 6 7 29 7 52 1 66 -55 97 -118 66z"/>
<path d="M12160 5114 c-30 -14 -56 -27 -58 -29 -2 -2 23 -53 55 -113 l59 -110
58 31 c86 46 103 95 60 179 -37 72 -84 84 -174 42z m123 -32 c33 -34 47 -79
36 -110 -7 -19 -62 -62 -81 -62 -8 0 -88 143 -88 157 0 12 59 42 86 42 11 1
32 -12 47 -27z"/>
<path d="M4839 5101 c-23 -24 -29 -38 -29 -75 0 -36 5 -48 26 -65 30 -23 74
-27 92 -9 21 21 13 28 -27 22 -34 -6 -41 -3 -56 20 -10 14 -15 33 -11 41 5 13
15 11 66 -15 l60 -30 10 25 c13 33 12 39 -1 68 -24 52 -87 60 -130 18z"/>
<path d="M10214 5120 c-52 -21 -74 -118 -36 -153 26 -23 78 -32 97 -17 23 19
18 33 -11 26 -48 -12 -92 21 -78 58 5 13 15 11 66 -15 33 -17 63 -27 67 -24
12 13 6 94 -9 109 -20 20 -69 28 -96 16z"/>
<path d="M1267 5069 l-58 -30 57 -107 c32 -59 58 -108 59 -109 1 -2 27 11 59
28 74 40 95 79 77 141 -17 55 -70 108 -107 108 -16 -1 -55 -14 -87 -31z m129
-33 c31 -31 39 -54 35 -96 -2 -18 -60 -70 -77 -70 -12 0 -94 138 -94 158 0 10
64 41 89 41 7 1 28 -14 47 -33z"/>
<path d="M6623 5071 l-62 -30 56 -108 c31 -59 57 -110 59 -112 6 -7 115 61
129 82 45 64 -24 197 -102 197 -10 0 -46 -13 -80 -29z m119 -28 c32 -34 51
-79 43 -104 -7 -22 -62 -69 -81 -69 -12 0 -88 131 -89 154 0 11 65 46 85 46 9
0 28 -12 42 -27z"/>
<path d="M15981 5006 c-32 -34 -38 -95 -14 -125 10 -12 31 -24 46 -24 31 -2
36 -22 8 -37 -27 -14 -65 4 -81 39 -14 29 -25 14 -16 -23 11 -43 99 -62 128
-28 16 18 98 165 98 176 0 3 -8 6 -18 6 -10 0 -25 9 -35 20 -25 29 -87 27
-116 -4z"/>
<path d="M5107 4979 c-23 -13 -47 -62 -47 -94 0 -34 42 -75 77 -75 l28 -1 -24
-19 c-13 -11 -29 -20 -37 -20 -18 0 -56 38 -49 49 2 5 -2 11 -10 15 -23 9 -19
-40 6 -63 30 -28 70 -33 99 -12 21 15 109 161 110 184 0 4 -8 7 -18 7 -11 0
-27 9 -37 20 -20 22 -68 26 -98 9z"/>
<path d="M10445 4964 c-53 -57 -39 -130 28 -149 37 -10 38 -11 19 -28 -10 -9
-25 -17 -34 -17 -17 0 -61 44 -53 52 3 3 -1 8 -10 11 -24 10 -19 -36 8 -60 27
-25 62 -34 91 -24 12 5 40 44 69 95 51 94 55 106 32 106 -8 0 -24 9 -35 20
-29 29 -85 27 -115 -6z"/>
<path d="M16159 4911 c-24 -24 -29 -38 -29 -75 0 -38 4 -48 26 -62 43 -29 119
-17 100 15 -5 7 -14 7 -30 0 -29 -14 -62 1 -71 32 -13 40 10 43 70 10 l55 -31
11 27 c33 88 -64 151 -132 84z"/>
<path d="M5269 4870 c-26 -26 -30 -36 -27 -77 3 -44 6 -50 40 -68 30 -16 40
-17 62 -7 38 17 33 34 -8 27 -27 -6 -39 -2 -55 14 -23 23 -25 30 -13 49 6 9
22 5 66 -19 31 -17 60 -29 62 -26 3 3 8 23 11 45 5 34 1 45 -20 66 -36 36 -80
35 -118 -4z"/>
<path d="M10637 4889 c-24 -14 -47 -62 -47 -99 0 -54 65 -95 116 -71 34 15 20
34 -18 26 -36 -8 -68 16 -68 52 0 12 3 23 6 23 4 0 31 -14 61 -31 30 -17 57
-29 59 -26 3 3 8 23 11 45 5 34 1 45 -20 66 -27 27 -68 33 -100 15z"/>
<path d="M2670 4230 l0 -110 85 0 c78 0 85 2 85 20 0 18 -7 20 -61 20 -60 0
-60 0 -57 28 3 25 6 27 51 27 38 0 47 3 47 18 0 14 -9 17 -50 17 -47 0 -50 2
-50 25 0 24 3 25 59 25 54 0 59 2 54 20 -5 18 -14 20 -84 20 l-79 0 0 -110z"/>
<path d="M7710 4230 l0 -110 25 0 c23 0 25 4 25 45 0 41 2 45 24 45 33 0 56
-25 56 -61 0 -24 4 -29 25 -29 21 0 25 5 25 28 0 15 -6 39 -14 53 -11 22 -11
29 0 44 19 26 17 52 -6 75 -16 16 -33 20 -90 20 l-70 0 0 -110z"/>
<path d="M9460 4307 c0 -32 -1 -32 -38 -29 -49 5 -75 -22 -75 -78 0 -62 22
-79 99 -79 l64 1 0 109 0 109 -25 0 c-22 0 -25 -4 -25 -33z"/>
<path d="M13680 4230 c0 -102 1 -110 19 -110 16 0 20 8 23 43 3 37 6 42 29 45
34 4 59 -21 59 -59 0 -24 4 -29 25 -29 24 0 25 2 19 43 -4 23 -10 46 -15 51
-4 5 -1 19 7 31 18 28 10 71 -16 85 -10 6 -48 10 -84 10 l-66 0 0 -110z"/>
<path d="M3030 4174 c0 -97 1 -104 20 -104 15 0 20 7 20 29 0 28 2 29 35 24
61 -10 97 45 75 113 -13 38 -25 44 -97 43 l-53 -1 0 -104z"/>
<path d="M3301 4254 c-45 -57 -11 -134 60 -134 54 0 79 27 79 83 0 55 -22 77
-78 77 -32 0 -45 -6 -61 -26z"/>
<path d="M3600 4260 c-27 -27 -27 -89 0 -118 27 -29 90 -30 115 -2 24 26 12
37 -26 23 -34 -13 -59 -8 -59 13 0 10 14 14 54 14 53 0 53 0 48 28 -2 15 -11
35 -20 45 -21 24 -86 23 -112 -3z"/>
<path d="M7934 4259 c-28 -31 -25 -96 5 -120 32 -26 85 -25 113 3 21 21 22 23
4 26 -10 2 -29 -2 -42 -9 -19 -10 -26 -10 -39 1 -27 22 -16 30 40 30 51 0 55
2 55 23 0 12 -7 33 -16 45 -21 30 -93 31 -120 1z"/>
<path d="M8281 4254 c-45 -57 -11 -134 59 -134 54 0 82 26 84 77 1 57 -24 83
-80 83 -34 0 -47 -5 -63 -26z"/>
<path d="M8450 4199 c0 -78 0 -79 25 -79 24 0 25 3 25 59 0 45 4 60 16 65 27
10 34 -3 34 -65 0 -56 1 -59 25 -59 24 0 25 3 25 59 0 63 11 81 35 61 10 -8
15 -31 15 -66 0 -47 2 -54 20 -54 18 0 20 7 20 68 0 37 -4 72 -8 79 -5 7 -45
11 -120 11 l-112 0 0 -79z"/>
<path d="M8730 4199 c0 -72 2 -79 20 -79 18 0 20 7 20 54 0 35 5 58 15 66 24
20 35 2 35 -61 0 -56 1 -59 25 -59 24 0 25 3 25 54 0 35 5 58 15 66 24 20 35
2 35 -61 0 -56 1 -59 25 -59 24 0 25 2 25 69 0 43 -5 72 -12 79 -7 5 -61 10
-120 10 l-108 0 0 -79z"/>
<path d="M9014 4259 c-28 -31 -25 -96 5 -120 32 -26 85 -25 113 3 21 21 22 23
4 26 -10 2 -29 -2 -42 -9 -19 -10 -26 -10 -39 1 -27 22 -16 30 40 30 51 0 55
2 55 23 0 12 -7 33 -16 45 -21 30 -93 31 -120 1z"/>
<path d="M9170 4199 c0 -78 0 -79 25 -79 24 0 25 3 25 59 0 45 4 60 16 65 27
10 34 -3 34 -65 0 -56 1 -59 25 -59 24 0 25 2 25 69 0 44 -5 72 -13 79 -7 6
-41 11 -75 10 l-62 -1 0 -78z"/>
<path d="M13900 4258 c-48 -52 -11 -138 62 -138 31 0 68 23 68 43 0 11 -29 8
-49 -5 -22 -14 -51 -4 -51 17 0 11 12 15 50 15 48 0 50 1 50 28 0 16 -8 36
-18 45 -27 25 -87 22 -112 -5z"/>
<path d="M14440 4258 c-48 -52 -11 -138 62 -138 31 0 68 23 68 43 0 11 -29 8
-49 -5 -22 -14 -51 -4 -51 17 0 11 12 15 50 15 48 0 50 1 50 28 0 16 -8 36
-18 45 -27 25 -87 22 -112 -5z"/>
<path d="M13650 1690 l0 -110 25 0 c23 0 25 4 25 40 0 40 0 40 38 40 55 0 82
23 82 70 0 53 -26 70 -107 70 l-63 0 0 -110z"/>
<path d="M13850 1690 c0 -103 1 -110 20 -110 18 0 20 7 20 54 0 56 17 83 45
72 11 -4 15 -21 15 -66 0 -54 2 -60 20 -60 19 0 21 5 18 78 l-3 77 -48 0 c-46
0 -47 0 -47 33 0 25 -4 32 -20 32 -19 0 -20 -7 -20 -110z"/>
<path d="M14642 1784 c-27 -19 -31 -67 -4 -57 9 4 22 13 28 21 13 18 48 12 52
-10 2 -12 -5 -19 -22 -24 -33 -8 -33 -30 -1 -38 30 -8 34 -41 6 -56 -16 -8
-23 -5 -39 15 -24 30 -52 33 -52 5 0 -33 35 -60 80 -60 66 0 105 63 65 104 -9
9 -11 17 -5 21 5 3 10 19 10 35 0 33 -31 60 -70 60 -14 0 -36 -7 -48 -16z"/>
<path d="M8010 1680 c0 -103 1 -110 20 -110 17 0 20 7 20 40 l0 40 45 0 c54 0
85 25 85 70 0 50 -30 70 -105 70 l-65 0 0 -110z"/>
<path d="M8200 1680 c0 -101 2 -110 19 -110 15 0 19 10 23 55 5 60 18 81 42
72 12 -5 16 -21 16 -67 0 -57 1 -60 25 -60 24 0 25 2 25 63 0 83 -13 102 -68
94 l-42 -5 0 34 c0 27 -4 34 -20 34 -19 0 -20 -7 -20 -110z"/>
<path d="M8995 1765 c-14 -13 -25 -33 -25 -45 0 -29 34 -26 48 5 13 28 34 32
51 11 16 -19 4 -42 -35 -67 -39 -24 -64 -56 -64 -81 0 -16 10 -18 75 -18 68 0
75 2 75 20 0 17 -7 20 -47 20 l-48 1 25 20 c64 50 70 58 70 88 0 66 -77 95
-125 46z"/>
<path d="M2620 1660 l0 -110 25 0 c23 0 25 4 25 40 0 40 0 40 38 40 55 0 82
23 82 70 0 53 -26 70 -107 70 l-63 0 0 -110z"/>
<path d="M2820 1660 c0 -103 1 -110 20 -110 18 0 20 7 20 54 0 56 17 83 45 72
11 -4 15 -21 15 -66 0 -54 2 -60 20 -60 19 0 21 5 18 78 l-3 77 -48 0 c-46 0
-47 0 -47 33 0 25 -4 32 -20 32 -19 0 -20 -7 -20 -110z"/>
<path d="M14035 1718 c-15 -22 -14 -23 7 -26 12 -2 24 1 26 7 5 16 52 14 52
-3 0 -8 -16 -17 -37 -21 -47 -9 -63 -21 -63 -50 0 -34 20 -44 88 -43 l62 1 0
66 c0 39 -5 72 -12 79 -7 7 -33 12 -59 12 -38 0 -51 -5 -64 -22z"/>
<path d="M14210 1726 c-23 -29 -8 -60 38 -74 23 -8 42 -20 42 -28 0 -17 -31
-19 -47 -3 -6 6 -21 9 -34 7 l-24 -3 23 -22 c41 -42 132 -24 132 25 0 28 -13
39 -57 51 -47 13 -57 31 -18 31 14 0 25 -4 25 -10 0 -5 9 -10 20 -10 22 0 26
20 8 38 -17 17 -93 15 -108 -2z"/>
<path d="M14374 1719 c-28 -31 -25 -96 5 -120 32 -26 85 -25 113 3 21 21 22
23 4 26 -10 2 -29 -2 -42 -9 -19 -10 -26 -10 -39 1 -27 22 -16 30 40 30 52 0
55 1 55 25 0 59 -94 90 -136 44z"/>
<path d="M8398 1719 c-27 -15 -22 -39 7 -39 14 0 25 5 25 11 0 6 10 9 23 7 35
-5 23 -22 -24 -34 -43 -10 -62 -34 -51 -64 9 -24 24 -29 87 -29 l60 1 -3 71
c-2 40 -9 75 -15 79 -17 11 -89 9 -109 -3z"/>
<path d="M8560 1715 c-24 -28 -4 -61 45 -75 25 -7 45 -17 45 -22 0 -15 -32
-22 -51 -10 -22 14 -49 16 -49 3 0 -21 34 -41 69 -41 50 0 74 18 69 55 -2 25
-10 32 -45 43 -24 8 -43 18 -43 23 0 12 37 11 45 -1 9 -15 45 -12 45 3 0 24
-24 37 -71 37 -29 0 -51 -6 -59 -15z"/>
<path d="M8730 1710 c-29 -29 -27 -90 3 -118 30 -29 87 -29 112 -2 24 26 12
37 -26 23 -34 -13 -59 -8 -59 13 0 10 14 14 50 14 48 0 50 1 50 28 0 16 -8 36
-18 45 -26 24 -87 22 -112 -3z"/>
<path d="M3005 1688 c-15 -22 -14 -23 7 -26 12 -2 24 1 26 7 5 16 52 14 52 -3
0 -8 -16 -17 -37 -21 -47 -9 -63 -21 -63 -50 0 -34 20 -44 88 -43 l62 1 0 66
c0 39 -5 72 -12 79 -7 7 -33 12 -59 12 -38 0 -51 -5 -64 -22z"/>
<path d="M3180 1696 c-23 -29 -8 -60 38 -74 23 -8 42 -20 42 -28 0 -17 -31
-19 -47 -3 -6 6 -21 9 -34 7 l-24 -3 23 -22 c41 -42 132 -24 132 25 0 28 -13
39 -57 51 -47 13 -57 31 -18 31 14 0 25 -4 25 -10 0 -5 9 -10 20 -10 22 0 26
20 8 38 -17 17 -93 15 -108 -2z"/>
<path d="M3344 1689 c-28 -31 -25 -96 5 -120 32 -26 85 -25 113 3 21 21 22 23
4 26 -10 2 -29 -2 -42 -9 -19 -10 -26 -10 -39 1 -27 22 -16 30 40 30 52 0 55
1 55 25 0 59 -94 90 -136 44z"/>
<path d="M11710 1200 l0 -110 75 0 c60 0 75 3 75 15 0 12 -13 15 -60 15 l-60
0 0 35 0 35 55 0 c42 0 55 3 55 15 0 12 -13 15 -55 15 -54 0 -55 0 -55 30 0
28 1 29 57 32 34 2 58 8 61 16 3 9 -16 12 -72 12 l-76 0 0 -110z"/>
<path d="M15140 1276 c0 -34 0 -34 -40 -29 -55 8 -80 -15 -80 -74 0 -61 25
-84 90 -81 l50 2 0 108 c0 65 -4 108 -10 108 -5 0 -10 -15 -10 -34z"/>
<path d="M6780 1266 c0 -34 0 -34 -40 -29 -55 8 -80 -15 -80 -74 0 -61 25 -84
90 -81 l50 2 0 108 c0 65 -4 108 -10 108 -5 0 -10 -15 -10 -34z"/>
<path d="M7357 1293 c-4 -3 -7 -17 -7 -30 0 -14 -6 -23 -15 -23 -8 0 -15 -4
-15 -9 0 -5 7 -11 15 -15 11 -4 15 -22 15 -71 0 -51 3 -65 15 -65 12 0 15 14
15 70 0 60 2 70 18 70 12 0 25 -20 44 -70 29 -74 28 -95 -3 -105 -24 -8 -25
-25 -1 -25 28 0 45 25 80 118 36 93 37 102 19 102 -7 0 -21 -25 -31 -56 -10
-31 -21 -52 -26 -48 -4 5 -15 30 -25 57 -15 41 -21 47 -46 47 -31 0 -41 26
-14 36 8 4 15 10 15 15 0 10 -43 12 -53 2z"/>
<path d="M10492 1267 l4 -34 -46 5 c-54 5 -69 -8 -77 -65 -4 -29 0 -44 17 -66
19 -24 27 -27 76 -25 l54 2 0 108 c0 93 -2 108 -16 108 -12 0 -15 -8 -12 -33z"/>
<path d="M1000 1246 c0 -34 0 -34 -40 -29 -55 8 -80 -15 -80 -74 0 -61 25 -84
90 -81 l50 2 0 108 c0 65 -4 108 -10 108 -5 0 -10 -15 -10 -34z"/>
<path d="M4410 1246 c0 -34 0 -34 -40 -29 -55 8 -80 -15 -80 -74 0 -61 25 -84
90 -81 l50 2 0 108 c0 65 -4 108 -10 108 -5 0 -10 -15 -10 -34z"/>
<path d="M12040 1138 c0 -89 3 -108 15 -108 10 0 15 10 15 34 0 34 0 34 40 29
57 -8 80 15 80 77 0 64 -19 80 -93 78 l-57 -2 0 -108z"/>
<path d="M12236 1228 c-23 -32 -20 -94 4 -118 27 -27 74 -26 102 2 27 27 7 39
-22 13 -22 -20 -55 -13 -70 16 -10 18 -7 19 50 19 56 0 60 2 60 23 0 41 -27
67 -70 67 -29 0 -43 -6 -54 -22z"/>
<path d="M12552 1172 c2 -49 7 -77 16 -80 8 -3 12 12 12 51 0 59 18 91 49 85
12 -3 17 -18 19 -71 2 -51 6 -67 17 -67 12 0 15 14 15 59 0 66 18 93 48 74 12
-7 18 -27 20 -72 2 -33 7 -61 13 -61 6 0 9 31 7 78 l-3 77 -108 1 -108 1 3
-75z"/>
<path d="M12834 1242 c-37 -24 -43 -87 -13 -126 24 -30 78 -36 103 -10 20 20
20 34 1 34 -8 0 -15 -4 -15 -9 0 -20 -41 -23 -61 -5 -30 27 -23 33 39 36 54 3
57 4 54 28 -2 14 -11 33 -19 43 -16 17 -69 23 -89 9z"/>
<path d="M13577 1232 c-24 -27 -22 -97 3 -122 30 -30 83 -27 109 6 30 39 24
102 -13 126 -22 15 -83 8 -99 -10z"/>
<path d="M13820 1138 c0 -89 3 -108 15 -108 10 0 15 10 15 34 0 34 0 34 40 29
57 -8 80 15 80 77 0 64 -19 80 -93 78 l-57 -2 0 -108z"/>
<path d="M14116 1237 c-28 -21 -32 -87 -6 -119 27 -35 80 -38 110 -8 27 27 28
100 2 123 -22 20 -81 22 -106 4z"/>
<path d="M14436 1228 c-23 -32 -20 -94 4 -118 27 -27 74 -26 102 2 27 27 7 39
-22 13 -22 -20 -55 -13 -70 16 -10 18 -7 19 50 19 56 0 60 2 60 23 0 41 -27
67 -70 67 -29 0 -43 -6 -54 -22z"/>
<path d="M14686 1237 c-28 -21 -32 -87 -6 -119 27 -35 80 -38 110 -8 27 27 28
100 2 123 -22 20 -81 22 -106 4z"/>
<path d="M15420 1138 c0 -89 3 -108 15 -108 10 0 15 10 15 34 0 34 0 34 40 29
57 -8 80 15 80 77 0 64 -19 80 -93 78 l-57 -2 0 -108z"/>
<path d="M15716 1237 c-28 -21 -32 -87 -6 -119 27 -35 80 -38 110 -8 27 27 28
100 2 123 -22 20 -81 22 -106 4z"/>
<path d="M16036 1228 c-23 -32 -20 -94 4 -118 27 -27 74 -26 102 2 27 27 7 39
-22 13 -22 -20 -55 -13 -70 16 -10 18 -7 19 50 19 56 0 60 2 60 23 0 41 -27
67 -70 67 -29 0 -43 -6 -54 -22z"/>
<path d="M16436 1228 c-23 -32 -20 -94 4 -118 27 -27 74 -26 102 2 27 27 7 39
-22 13 -22 -20 -55 -13 -70 16 -10 18 -7 19 50 19 56 0 60 2 60 23 0 41 -27
67 -70 67 -29 0 -43 -6 -54 -22z"/>
<path d="M6856 1218 c-23 -32 -20 -94 4 -118 27 -27 74 -26 102 2 27 27 7 39
-22 13 -22 -20 -55 -13 -70 16 -10 18 -7 19 50 19 56 0 60 2 60 23 0 41 -27
67 -70 67 -29 0 -43 -6 -54 -22z"/>
<path d="M7826 1222 c-24 -27 -21 -97 5 -123 16 -16 29 -20 55 -16 37 6 46
-10 19 -33 -16 -13 -65 -6 -65 10 0 6 -7 10 -15 10 -19 0 -19 -14 1 -34 22
-23 80 -20 104 4 17 17 20 33 20 109 l0 88 -54 2 c-40 1 -57 -4 -70 -17z"/>
<path d="M8264 1232 c-37 -24 -43 -87 -13 -126 24 -30 78 -36 103 -10 20 20
20 34 1 34 -8 0 -15 -4 -15 -9 0 -20 -41 -23 -61 -5 -30 27 -23 33 39 36 54 3
57 4 54 28 -2 14 -11 33 -19 43 -16 17 -69 23 -89 9z"/>
<path d="M8390 1233 c0 -5 10 -41 21 -80 28 -94 50 -99 68 -17 7 30 15 53 18
51 2 -3 10 -27 17 -54 18 -71 38 -67 64 15 25 78 27 95 10 90 -7 -3 -20 -29
-29 -59 -17 -57 -20 -55 -39 19 -6 24 -17 42 -25 42 -14 0 -35 -56 -35 -92 0
-37 -17 -16 -30 37 -8 33 -19 55 -27 55 -7 0 -13 -3 -13 -7z"/>
<path d="M8887 1222 c-24 -27 -22 -97 3 -122 30 -30 83 -27 109 6 30 39 24
102 -13 126 -22 15 -83 8 -99 -10z"/>
<path d="M9404 1232 c-37 -24 -43 -87 -13 -126 24 -30 78 -36 103 -10 20 20
20 34 1 34 -8 0 -15 -4 -15 -9 0 -20 -41 -23 -61 -5 -30 27 -23 33 39 36 54 3
57 4 54 28 -2 14 -11 33 -19 43 -16 17 -69 23 -89 9z"/>
<path d="M9540 1129 c0 -90 3 -109 15 -109 10 0 15 10 15 34 0 34 1 34 38 29
51 -6 73 12 79 69 8 65 -17 88 -92 87 l-55 -2 0 -108z"/>
<path d="M10062 1228 c-14 -14 -16 -38 -3 -38 5 0 14 7 21 15 16 19 44 19 60
0 14 -16 16 -15 -55 -37 -29 -10 -41 -19 -43 -36 -6 -40 14 -51 84 -50 63 1
73 5 55 24 -6 5 -11 36 -13 69 l-3 60 -45 3 c-26 2 -50 -2 -58 -10z"/>
<path d="M1084 1212 c-37 -24 -43 -87 -13 -126 24 -30 78 -36 103 -10 20 20
20 34 1 34 -8 0 -15 -4 -15 -9 0 -20 -41 -23 -61 -5 -30 27 -23 33 39 36 54 3
57 4 54 28 -2 14 -11 33 -19 43 -16 17 -69 23 -89 9z"/>
<path d="M2046 1207 c-9 -7 -20 -31 -23 -52 -4 -32 0 -46 18 -69 19 -24 27
-28 61 -23 41 5 47 -2 22 -27 -20 -20 -48 -20 -64 -1 -16 19 -30 19 -30 0 0
-33 86 -48 114 -19 12 12 16 37 16 108 l0 93 -48 2 c-26 0 -56 -5 -66 -12z"/>
<path d="M2456 1198 c-23 -32 -20 -94 4 -118 27 -27 74 -26 102 2 27 27 7 39
-22 13 -22 -20 -55 -13 -70 16 -10 18 -7 19 50 19 56 0 60 2 60 23 0 41 -27
67 -70 67 -29 0 -43 -6 -54 -22z"/>
<path d="M3306 1202 c-24 -27 -21 -97 5 -123 16 -16 29 -20 55 -16 37 6 46
-10 19 -33 -16 -13 -65 -6 -65 10 0 6 -7 10 -15 10 -19 0 -19 -14 1 -34 22
-23 80 -20 104 4 17 17 20 33 20 109 l0 88 -54 2 c-40 1 -57 -4 -70 -17z"/>
<path d="M3976 1204 c-9 -8 -16 -20 -16 -25 0 -14 20 -11 37 7 19 19 57 15 61
-8 2 -13 -6 -19 -35 -24 -50 -9 -63 -20 -63 -55 0 -32 13 -38 85 -36 l51 1 -4
65 c-2 36 -9 72 -14 79 -15 17 -83 15 -102 -4z"/>
<path d="M4762 1208 c-14 -14 -16 -38 -3 -38 5 0 14 7 21 15 16 19 44 19 60 0
14 -16 16 -15 -55 -37 -29 -10 -41 -19 -43 -36 -6 -40 14 -51 84 -50 63 1 73
5 55 24 -6 5 -11 36 -13 69 l-3 60 -45 3 c-26 2 -50 -2 -58 -10z"/>
<path d="M4910 1138 c0 -62 3 -78 15 -78 10 0 15 16 17 61 5 112 68 104 68 -8
0 -29 5 -53 10 -53 6 0 10 24 10 54 0 58 18 90 49 84 12 -3 17 -18 19 -71 2
-51 6 -67 17 -67 20 0 21 132 2 148 -7 6 -54 10 -110 10 l-97 -2 0 -78z"/>
<path d="M5416 1202 c-24 -27 -21 -97 5 -123 16 -16 29 -20 55 -16 37 6 46
-10 19 -33 -16 -13 -65 -6 -65 10 0 6 -7 10 -15 10 -19 0 -19 -14 1 -34 22
-23 80 -20 104 4 17 17 20 33 20 109 l0 88 -54 2 c-40 1 -57 -4 -70 -17z"/>
<path d="M8080 822 l0 -108 54 -2 c68 -2 87 12 93 70 7 61 -20 92 -78 86 -38
-3 -39 -3 -39 29 0 23 -5 33 -15 33 -12 0 -15 -19 -15 -108z"/>
<path d="M3337 903 c-4 -3 -7 -52 -7 -108 l0 -101 57 -2 c74 -2 93 14 93 78 0
62 -23 85 -80 77 -40 -5 -40 -5 -40 29 0 32 -8 42 -23 27z"/>
<path d="M13372 868 c-14 -14 -16 -38 -3 -38 5 0 14 7 21 15 16 19 44 19 60 0
14 -16 16 -15 -55 -37 -29 -10 -41 -19 -43 -36 -6 -40 14 -51 84 -50 63 1 73
5 55 24 -6 5 -11 36 -13 69 l-3 60 -45 3 c-26 2 -50 -2 -58 -10z"/>
<path d="M13990 798 c0 -62 3 -78 15 -78 10 0 15 16 17 61 5 112 68 104 68 -8
0 -29 5 -53 10 -53 6 0 10 24 10 54 0 58 18 90 49 84 12 -3 17 -18 19 -71 2
-51 6 -67 17 -67 20 0 21 132 2 148 -7 6 -54 10 -110 10 l-97 -2 0 -78z"/>
<path d="M14250 769 c0 -90 3 -109 15 -109 10 0 15 10 15 34 0 34 1 34 38 29
51 -6 73 12 79 69 8 65 -17 88 -92 87 l-55 -2 0 -108z"/>
<path d="M14606 867 c-28 -21 -32 -87 -6 -119 27 -35 80 -38 110 -8 27 27 28
100 2 123 -22 20 -81 22 -106 4z"/>
<path d="M7360 759 c0 -90 3 -109 15 -109 10 0 15 10 15 34 0 34 1 34 38 29
51 -6 73 12 79 69 8 65 -17 88 -92 87 l-55 -2 0 -108z"/>
<path d="M7556 857 c-28 -21 -32 -87 -6 -119 27 -35 80 -38 110 -8 27 27 28
100 2 123 -22 20 -81 22 -106 4z"/>
<path d="M8354 862 c-37 -24 -43 -87 -13 -126 24 -30 78 -36 103 -10 20 20 20
34 1 34 -8 0 -15 -4 -15 -9 0 -20 -41 -23 -61 -5 -30 27 -23 33 39 36 54 3 57
4 54 28 -2 14 -11 33 -19 43 -16 17 -69 23 -89 9z"/>
<path d="M8737 852 c-24 -27 -22 -97 3 -122 30 -30 83 -27 109 6 30 39 24 102
-13 126 -22 15 -83 8 -99 -10z"/>
<path d="M9307 852 c-24 -27 -22 -97 3 -122 30 -30 83 -27 109 6 30 39 24 102
-13 126 -22 15 -83 8 -99 -10z"/>
<path d="M2656 828 c-23 -32 -20 -94 4 -118 27 -27 74 -26 102 2 27 27 7 39
-22 13 -22 -20 -55 -13 -70 16 -10 18 -7 19 50 19 56 0 60 2 60 23 0 41 -27
67 -70 67 -29 0 -43 -6 -54 -22z"/>
<path d="M2890 739 c0 -90 3 -109 15 -109 10 0 15 10 15 34 0 34 1 34 38 29
51 -6 73 12 79 69 8 65 -17 88 -92 87 l-55 -2 0 -108z"/>
<path d="M3177 832 c-24 -27 -22 -97 3 -122 30 -30 83 -27 109 6 30 39 24 102
-13 126 -22 15 -83 8 -99 -10z"/>
<path d="M3596 828 c-23 -32 -20 -94 4 -118 27 -27 74 -26 102 2 27 27 7 39
-22 13 -22 -20 -55 -13 -70 16 -10 18 -7 19 50 19 56 0 60 2 60 23 0 41 -27
67 -70 67 -29 0 -43 -6 -54 -22z"/>
<path d="M3742 772 c2 -49 7 -77 16 -80 8 -3 12 12 12 51 0 59 18 91 49 85 12
-3 17 -18 19 -71 2 -51 6 -67 17 -67 12 0 15 14 15 59 0 66 18 93 48 74 12 -7
18 -27 20 -72 2 -33 7 -61 13 -61 6 0 9 31 7 78 l-3 77 -108 1 -108 1 3 -75z"/>
</g>
</svg>
